# xmcd
#
# Track frame offsets:
#	150
#	14419
#	31511
#	49654
#	65291
#	87839
#	102083
#	119668
#	139224
#	155215
#	164186
#	180747
#	200357
#
# Disc length: 2941 seconds
#
# Revision: 4
# Processed by: cddbd v1.4PL0 Copyright (c) Steve Scherf et al.
# Submitted via: CDmax 1.9
#
DISCID=b20b7b0d
DTITLE=Lonesome Brothers - Diesel Therapy
DYEAR=1999
DGENRE=Country
TTITLE0=Going Blind
TTITLE1=Remember to Forget
TTITLE2=Diesel Therapy
TTITLE3=All Jacked Up
TTITLE4=Every Goodbye
TTITLE5=Water off a Duck
TTITLE6=Big Shakedown
TTITLE7=Don't make me a Memory
TTITLE8=Lucinda
TTITLE9=Digging Too Deep
TTITLE10=Elly Mae's Party
TTITLE11=Don't Hurry Me
TTITLE12=What I Want
EXTD=
EXTT0=
EXTT1=
EXTT2=
EXTT3=
EXTT4=
EXTT5=
EXTT6=
EXTT7=
EXTT8=
EXTT9=
EXTT10=
EXTT11=
EXTT12=
PLAYORDER=
